<svg width="32" height="32" xmlns="http://www.w3.org/2000/svg"><circle style="fill:#29a9b9;fill-opacity:1;stroke:#e8f8b8;stroke-width:2;stroke-linejoin:round;stroke-miterlimit:4.6;stroke-opacity:1;paint-order:stroke markers fill" cx="13" cy="13" r="8" /><path style="fill:#ffffff;fill-opacity:1;stroke:#3f3f3f;stroke-width:2;stroke-linejoin:round;stroke-miterlimit:4.6;stroke-opacity:1;paint-order:stroke markers fill" d="m 20.5,15 -6,4 h -3 v 4 h 3 l 6,4 z" /><path style="fill:none;fill-opacity:1;stroke:#3f3f3f;stroke-width:1;stroke-linejoin:round;stroke-miterlimit:4.6;stroke-opacity:1;paint-order:stroke markers fill" d="M 22.914553,19.585786 A 2,2 0 0 1 23.500339,21 v 0 a 2,2 0 0 1 -0.585786,1.414214" /><path style="fill:none;fill-opacity:1;stroke:#3f3f3f;stroke-width:1;stroke-linejoin:round;stroke-miterlimit:4.6;stroke-opacity:1;paint-order:stroke markers fill" d="M 24.328766,18.171573 A 4,4 0 0 1 25.500339,21 v 0 a 4,4 0 0 1 -1.171573,2.828427" /><path style="fill:none;fill-opacity:1;stroke:#3f3f3f;stroke-width:1;stroke-linejoin:round;stroke-miterlimit:4.6;stroke-opacity:1;paint-order:stroke markers fill" d="M 25.74298,16.757359 A 6,6 0 0 1 27.500339,21 v 0 a 6,6 0 0 1 -1.757359,4.242641" /></svg>